<svg width="941" height="303" viewBox="0 0 941 303" fill="none" xmlns="http://www.w3.org/2000/svg">
<path d="M237.127 87.4777C231.654 86.7137 226.58 90.5565 225.816 96.0299C225.052 101.503 228.894 106.578 234.368 107.342C239.841 108.106 244.915 104.263 245.679 98.7894C246.443 93.316 242.601 88.2417 237.127 87.4777Z" fill="#FF1B2E"></path>
<path d="M321.191 189.807L269.308 118.596C276.674 111.56 283.961 104.205 290.369 96.6567C295.044 91.1947 298.944 85.9722 302.285 80.704C303.722 78.4348 305.569 75.4472 307.12 72.4369C308.591 69.5633 309.914 66.667 311.031 63.8733C315.912 51.4326 317.405 39.0833 315.615 26.1409C314.566 18.7632 312.593 11.5337 309.594 4.04199C309.788 9.69785 309.458 15.2055 308.625 20.4622C306.595 33.587 301.635 46.1189 293.493 58.7647C291.669 61.6383 289.639 64.5574 287.461 67.4196C285.58 69.9168 283.322 72.8588 280.848 75.7551C276.651 80.6812 271.828 85.8923 266.081 91.685C258.133 99.6671 249.524 107.547 241.211 115.164C238.714 117.444 236.216 119.736 233.742 122.028C233.434 122.313 233.138 122.587 232.83 122.872C222.67 132.28 212.065 142.417 203.148 152.907C198.473 158.369 194.573 163.592 191.232 168.86C189.795 171.129 187.948 174.117 186.397 177.127C184.926 180.001 183.603 182.897 182.486 185.691C177.605 198.132 176.112 210.481 177.902 223.423C178.951 230.801 180.912 238.03 183.923 245.522C183.729 239.866 184.059 234.359 184.892 229.102C186.921 215.977 191.882 203.445 200.023 190.799C201.848 187.926 203.878 185.007 206.056 182.145C207.937 179.647 210.195 176.705 212.669 173.809C216.866 168.883 221.689 163.672 227.436 157.879C233.446 151.847 239.82 145.883 246.171 140.034L281 190.218H321.5L321.191 189.807Z" fill="white"></path>
<path d="M216.248 94.7183C217.593 85.0258 225.974 77.7279 235.747 77.7279C236.647 77.7279 237.56 77.7849 238.449 77.9103C238.586 77.9331 238.711 77.9674 238.848 77.9902L211.5 38.2178H171L216.35 100.785C216.008 98.8348 215.951 96.7936 216.248 94.7297V94.7183Z" fill="white"></path>
<path d="M262.213 67.8877C262.019 67.8649 261.837 67.8421 261.643 67.8307C257.914 67.6026 254.596 70.328 254.083 74.0339C253.536 77.9679 256.295 81.6169 260.229 82.1642C260.423 82.187 260.605 82.2098 260.799 82.2212C264.528 82.4493 267.846 79.724 268.359 76.018C268.907 72.084 266.147 68.4351 262.213 67.8877Z" fill="white"></path>
<path d="M281.804 46.1754C281.655 46.1526 281.507 46.1412 281.359 46.1298C278.394 45.9474 275.76 48.1253 275.35 51.0673C274.916 54.2031 277.106 57.0994 280.241 57.5328C280.39 57.5556 280.538 57.567 280.686 57.5784C283.651 57.7608 286.296 55.5829 286.696 52.6409C286.901 51.1243 286.513 49.6191 285.589 48.399C284.666 47.1789 283.32 46.3921 281.804 46.1754Z" fill="white"></path>
<path d="M295.18 23.6204C295.066 23.609 294.952 23.5976 294.85 23.5862C292.649 23.4494 290.688 25.0686 290.38 27.2465C290.06 29.5727 291.691 31.7279 294.006 32.0472C294.12 32.0586 294.234 32.07 294.337 32.0814C296.537 32.2182 298.499 30.599 298.807 28.421C299.126 26.0948 297.495 23.9397 295.18 23.6204Z" fill="white"></path>
<path d="M300.685 0.028275C300.616 0.028275 300.536 0.00546912 300.468 0.00546912C299.031 -0.0857545 297.754 0.97472 297.549 2.40009C297.344 3.91668 298.404 5.33065 299.921 5.5359C299.989 5.5359 300.137 5.5587 300.137 5.5587C301.574 5.64993 302.851 4.58945 303.056 3.16409C303.262 1.64749 302.201 0.244931 300.685 0.028275Z" fill="white"></path>
<path d="M171.959 178.165C172.153 178.188 172.336 178.211 172.529 178.222C176.258 178.45 179.576 175.725 180.09 172.019C180.637 168.085 177.877 164.436 173.943 163.889C173.75 163.866 173.567 163.843 173.373 163.832C169.645 163.604 166.326 166.329 165.813 170.035C165.551 171.939 166.041 173.832 167.204 175.371C168.367 176.911 170.055 177.903 171.959 178.165Z" fill="white"></path>
<path d="M164.24 206.49C167.205 206.672 169.839 204.494 170.249 201.552C170.455 200.035 170.067 198.53 169.143 197.31C168.22 196.09 166.874 195.303 165.369 195.087C165.221 195.064 165.073 195.052 164.924 195.041C161.959 194.858 159.314 197.036 158.915 199.978C158.71 201.495 159.097 203 160.021 204.22C160.945 205.44 162.29 206.227 163.807 206.444C163.955 206.467 164.103 206.478 164.251 206.49H164.24Z" fill="white"></path>
<path d="M165.974 223.674C165.86 223.663 165.746 223.651 165.643 223.64C163.443 223.503 161.481 225.122 161.185 227.3C161.025 228.418 161.322 229.547 162.006 230.447C162.69 231.36 163.694 231.941 164.811 232.101C164.925 232.112 165.039 232.124 165.142 232.135C167.342 232.272 169.304 230.653 169.6 228.475C169.76 227.357 169.463 226.228 168.779 225.328C168.095 224.415 167.092 223.834 165.974 223.674Z" fill="white"></path>
<path d="M173.817 248.464C173.749 248.464 173.669 248.441 173.601 248.441C172.164 248.35 170.887 249.41 170.682 250.836C170.476 252.352 171.537 253.755 173.053 253.971C173.122 253.971 173.27 253.994 173.27 253.994C174.707 254.085 175.984 253.025 176.189 251.6C176.292 250.87 176.098 250.14 175.653 249.547C175.209 248.954 174.559 248.566 173.817 248.475V248.464Z" fill="white"></path>
<path d="M211.163 109.633C210.935 109.599 210.707 109.576 210.479 109.565C205.986 109.291 201.983 112.575 201.368 117.045C201.048 119.337 201.641 121.618 203.044 123.476C204.446 125.324 206.476 126.521 208.768 126.84C208.996 126.874 209.224 126.897 209.452 126.909C213.945 127.182 217.947 123.898 218.563 119.44C219.225 114.696 215.895 110.306 211.151 109.645L211.163 109.633Z" fill="white"></path>
<path d="M187.754 149.873C187.948 149.896 188.131 149.919 188.324 149.93C192.053 150.158 195.371 147.433 195.885 143.727C196.432 139.793 193.672 136.144 189.738 135.597C189.544 135.574 189.362 135.551 189.168 135.54C185.439 135.312 182.121 138.037 181.608 141.743C181.346 143.647 181.836 145.54 182.999 147.079C184.162 148.619 185.85 149.611 187.754 149.873Z" fill="white"></path>
<path d="M44.96 161.989H127.691V190.218H10V38.2178H124.868V66.4463H44.96V99.452H115.531V126.812H44.96V161.989Z" fill="white"></path>
<path d="M856.634 190.218V66.8806H807.994V38.2178H940.451V66.8806H891.811V190.218H856.634Z" fill="white"></path>
<path d="M795.017 190.218H757.234L727.92 147.875H726.183H695.566V190.218H660.389V38.2178H726.183C766.789 38.2178 792.194 59.2806 792.194 93.372C792.194 116.172 780.686 132.892 760.926 141.361L795.017 190.218ZM756.583 93.372C756.583 76.652 745.726 66.8806 724.229 66.8806H695.566V119.863H724.229C745.726 119.863 756.583 109.875 756.583 93.372Z" fill="white"></path>
<path d="M549.667 161.989H632.398V190.218H514.707V38.2178H629.576V66.4463H549.667V99.452H620.238V126.812H549.667V161.989Z" fill="white"></path>
<path d="M423.581 38.2178C464.187 38.2178 489.593 59.2806 489.593 93.372C489.593 127.246 464.187 148.309 423.581 148.309H392.964V190.218H357.787V38.2178H423.581ZM421.627 119.646C443.124 119.646 453.981 109.875 453.981 93.372C453.981 76.652 443.124 66.8806 421.627 66.8806H392.964V119.646H421.627Z" fill="white"></path>
<path d="M940.311 208.695L915.055 250.45V273.217H903.073V250.635L877.725 208.695H890.537L909.433 240.127L928.513 208.695H940.311Z" fill="#116ACC"></path>
<path d="M849.938 260.314V240.22H861.275V265.936C854.546 271.375 845.145 274.14 836.019 274.14C816.017 274.14 801.27 260.222 801.27 240.957C801.27 221.693 816.017 207.774 836.204 207.774C846.988 207.774 856.021 211.369 862.105 218.282L854.546 225.656C849.477 220.587 843.67 218.282 836.757 218.282C823.023 218.282 813.344 227.592 813.344 240.957C813.344 254.046 823.023 263.632 836.664 263.632C841.273 263.632 845.79 262.71 849.938 260.314Z" fill="#116ACC"></path>
<path d="M748.289 274.14C728.287 274.14 713.539 260.037 713.539 240.957C713.539 221.877 728.287 207.774 748.289 207.774C768.291 207.774 783.039 221.785 783.039 240.957C783.039 260.129 768.291 274.14 748.289 274.14ZM748.289 263.632C761.285 263.632 770.964 254.138 770.964 240.957C770.964 227.776 761.285 218.282 748.289 218.282C735.292 218.282 725.614 227.776 725.614 240.957C725.614 254.138 735.292 263.632 748.289 263.632Z" fill="#116ACC"></path>
<path d="M654 273.217V208.695H665.983V263.078H699.718V273.217H654Z" fill="#116ACC"></path>
<path d="M596.41 274.14C576.408 274.14 561.66 260.037 561.66 240.957C561.66 221.877 576.408 207.774 596.41 207.774C616.412 207.774 631.16 221.785 631.16 240.957C631.16 260.129 616.412 274.14 596.41 274.14ZM596.41 263.632C609.406 263.632 619.085 254.138 619.085 240.957C619.085 227.776 609.406 218.282 596.41 218.282C583.413 218.282 573.735 227.776 573.735 240.957C573.735 254.138 583.413 263.632 596.41 263.632Z" fill="#116ACC"></path>
<path d="M526.695 273.217V208.695H538.678V273.217H526.695Z" fill="#116ACC"></path>
<path d="M440.404 273.217V208.695H468.61C489.533 208.695 503.82 221.6 503.82 240.956C503.82 260.313 489.533 273.217 468.61 273.217H440.404ZM452.387 263.078H468.057C482.436 263.078 491.745 254.322 491.745 240.956C491.745 227.591 482.436 218.834 468.057 218.834H452.387V263.078Z" fill="#116ACC"></path>
<path d="M409.524 273.217L403.072 258.285H370.811L364.451 273.217H352.1L381.135 208.695H392.933L422.06 273.217H409.524ZM374.867 248.883H399.109L386.942 220.678L374.867 248.883Z" fill="#116ACC"></path>
<path d="M338.784 273.217H325.88L312.699 254.322C311.869 254.414 311.04 254.414 310.21 254.414H295.647V273.217H283.664V208.695H310.21C327.17 208.695 337.678 217.36 337.678 231.647C337.678 241.417 332.701 248.607 323.944 252.017L338.784 273.217ZM325.603 231.647C325.603 223.535 320.165 218.834 309.657 218.834H295.647V244.551H309.657C320.165 244.551 325.603 239.758 325.603 231.647Z" fill="#116ACC"></path>
</svg>